<svg width="32" height="32" viewBox="0 0 32 32" fill="none" xmlns="http://www.w3.org/2000/svg">
<path d="M16 7.43201L15.2693 8.11468C15.3629 8.2148 15.476 8.29463 15.6017 8.34921C15.7274 8.40378 15.863 8.43195 16 8.43195C16.137 8.43195 16.2726 8.40378 16.3983 8.34921C16.524 8.29463 16.6371 8.2148 16.7307 8.11468L16 7.43201ZM3.53599 18.2427C3.60196 18.3589 3.69056 18.4608 3.79656 18.5422C3.90256 18.6236 4.02381 18.6829 4.15314 18.7167C4.28246 18.7504 4.41724 18.7579 4.54951 18.7387C4.68178 18.7195 4.80886 18.6739 4.92322 18.6048C5.03759 18.5356 5.13693 18.4442 5.21537 18.336C5.29381 18.2278 5.34976 18.1049 5.37991 17.9747C5.41007 17.8445 5.41381 17.7095 5.39092 17.5779C5.36803 17.4462 5.31897 17.3204 5.24665 17.208L3.53599 18.2427ZM8.71599 21.5613C8.62563 21.4623 8.51628 21.3824 8.39444 21.3265C8.27259 21.2705 8.14074 21.2396 8.00672 21.2357C7.87271 21.2317 7.73926 21.2547 7.61432 21.3034C7.48938 21.352 7.3755 21.4253 7.27945 21.5189C7.18341 21.6124 7.10715 21.7243 7.05522 21.8479C7.00329 21.9715 6.97674 22.1043 6.97717 22.2384C6.97759 22.3725 7.00497 22.5051 7.05768 22.6284C7.11039 22.7517 7.18735 22.8631 7.28399 22.956L8.71599 21.5613ZM3.66665 12.424C3.66665 8.55068 5.35732 6.15735 7.44799 5.33735C9.53465 4.52001 12.4533 5.10401 15.2693 8.11468L16.7307 6.74935C13.5467 3.34401 9.79865 2.26935 6.71865 3.47468C3.64265 4.68001 1.66665 7.98935 1.66665 12.424H3.66665ZM20.68 26.6133C22.6707 24.9987 25.0547 22.8347 26.9507 20.4173C28.8267 18.0253 30.3333 15.2453 30.3333 12.4213H28.3333C28.3333 14.5707 27.16 16.9067 25.376 19.1827C23.6107 21.4347 21.3547 23.492 19.4213 25.06L20.68 26.6133ZM30.3333 12.4213C30.3333 7.98801 28.3573 4.67868 25.28 3.47468C22.2 2.26801 18.4533 3.34135 15.2693 6.74801L16.7307 8.11468C19.5467 5.10401 22.4653 4.51868 24.552 5.33601C26.6427 6.15468 28.3333 8.54935 28.3333 12.4213H30.3333ZM11.32 26.6147C13.0133 27.9907 14.1893 29 16 29V27C15.036 27 14.436 26.568 12.5787 25.0613L11.32 26.6147ZM19.4213 25.06C17.564 26.5667 16.964 27 16 27V29C17.8107 29 18.988 27.9907 20.6813 26.6147L19.4213 25.06ZM5.24799 17.208C4.24932 15.56 3.66665 13.94 3.66665 12.424H1.66665C1.66665 14.44 2.43465 16.424 3.53599 18.2427L5.24799 17.208ZM12.5787 25.0613C11.225 23.9697 9.93535 22.8011 8.71599 21.5613L7.28399 22.956C8.5565 24.2531 9.90502 25.4747 11.32 26.6147L12.5787 25.0613Z" fill="url(#paint0_linear_13_2)"/>
<g clip-path="url(#clip0_13_2)">
<path fill-rule="evenodd" clip-rule="evenodd" d="M10.9446 13.7858C11.0376 13.7857 11.1282 13.8152 11.2034 13.87C11.2785 13.9247 11.3343 14.002 11.3627 14.0905L13.2846 20.0964L14.0367 17.7465C14.065 17.6579 14.1206 17.5806 14.1957 17.5257C14.2708 17.4709 14.3613 17.4412 14.4543 17.4412H15.1854C15.3017 17.4412 15.4133 17.4874 15.4955 17.5697C15.5778 17.6519 15.624 17.7635 15.624 17.8798C15.624 17.9962 15.5778 18.1077 15.4955 18.19C15.4133 18.2723 15.3017 18.3185 15.1854 18.3185H14.7742L13.7022 21.6691C13.6737 21.7575 13.618 21.8346 13.543 21.8893C13.4679 21.944 13.3774 21.9735 13.2846 21.9735C13.1917 21.9735 13.1013 21.944 13.0262 21.8893C12.9512 21.8346 12.8954 21.7575 12.867 21.6691L10.9481 15.6726L9.60876 19.9128C9.58113 20.0002 9.52682 20.0767 9.45348 20.1316C9.38013 20.1866 9.29141 20.2171 9.1998 20.2191C9.10818 20.221 9.01825 20.1942 8.94265 20.1424C8.86704 20.0906 8.80956 20.0165 8.77826 19.9303L8.039 17.8974L7.99806 18.019C7.96898 18.1063 7.91318 18.1823 7.83855 18.2361C7.76393 18.29 7.67426 18.319 7.58223 18.3191H6.70495C6.58861 18.3191 6.47704 18.2728 6.39478 18.1906C6.31252 18.1083 6.2663 17.9967 6.2663 17.8804C6.2663 17.7641 6.31252 17.6525 6.39478 17.5702C6.47704 17.488 6.58861 17.4418 6.70495 17.4418H7.26641L7.60446 16.4259C7.63311 16.3393 7.68801 16.2639 7.76153 16.21C7.83505 16.1561 7.92352 16.1265 8.01466 16.1252C8.10581 16.1239 8.19509 16.151 8.27009 16.2028C8.3451 16.2546 8.40211 16.3285 8.4332 16.4142L9.16134 18.4173L10.527 14.0929C10.5549 14.004 10.6105 13.9263 10.6856 13.8711C10.7607 13.8159 10.8514 13.786 10.9446 13.7858Z" fill="url(#paint1_linear_13_2)"/>
</g>
<g clip-path="url(#clip1_13_2)">
<path d="M22.8408 10.5362L23.7529 10.7962C24.0943 10.8936 24.0947 11.3774 23.7534 11.4754L22.8417 11.7365C22.7841 11.7531 22.7316 11.784 22.6892 11.8265C22.6468 11.8689 22.6159 11.9215 22.5995 11.9792L22.3398 12.8913C22.2424 13.2328 21.7586 13.2332 21.6606 12.8919L21.3995 11.9802C21.3829 11.9225 21.352 11.87 21.3095 11.8276C21.267 11.7852 21.2145 11.7544 21.1568 11.7379L20.2446 11.4782C19.9032 11.3808 19.9028 10.8971 20.2441 10.7991L21.1558 10.5379C21.2135 10.5214 21.266 10.4904 21.3084 10.448C21.3508 10.4055 21.3816 10.3529 21.3981 10.2952L21.6577 9.3831C21.7552 9.04167 22.2389 9.04128 22.3369 9.38254L22.5981 10.2943C22.6146 10.3519 22.6456 10.4044 22.688 10.4468C22.7305 10.4892 22.7831 10.5201 22.8408 10.5365M20.674 12.9345C20.9221 13.0193 20.9227 13.3769 20.6744 13.4618L20.6488 13.4695L20.2993 13.5569L20.2122 13.9065C20.1418 14.1891 19.741 14.1894 19.6702 13.907L19.5825 13.5575L19.2328 13.4706C18.9506 13.4003 18.9502 12.9992 19.2324 12.9283L19.5819 12.8406L19.669 12.491C19.7394 12.2084 20.1405 12.2081 20.211 12.4905L20.2987 12.84L20.6484 12.9272L20.674 12.9345ZM20.0003 13.1987C19.9776 13.1818 19.9575 13.1617 19.9406 13.139C19.9236 13.1617 19.9035 13.1819 19.8809 13.1988C19.9036 13.2157 19.9237 13.2358 19.9407 13.2585C19.9577 13.2358 19.9779 13.2156 20.0006 13.1987M24.7906 8.81142C25.047 8.8989 25.0388 9.27763 24.7654 9.34642L24.4159 9.4338L24.3288 9.78346C24.2584 10.066 23.8576 10.0663 23.7868 9.78391L23.6991 9.43439L23.3494 9.34758C23.0672 9.27718 23.0669 8.8761 23.349 8.80525L23.6985 8.71757L23.7856 8.36791C23.856 8.08536 24.2571 8.08503 24.3277 8.36746L24.4153 8.71698L24.765 8.80409L24.7906 8.81142ZM24.1167 9.07564C24.0941 9.0587 24.074 9.0386 24.0572 9.01595C24.0402 9.03867 24.02 9.0588 23.9972 9.07573C24.02 9.09263 24.0402 9.11273 24.0573 9.13542C24.0742 9.11273 24.094 9.09259 24.1167 9.07564Z" fill="url(#paint2_linear_13_2)"/>
</g>
<defs>
<linearGradient id="paint0_linear_13_2" x1="15.6382" y1="3.97986" x2="15.1156" y2="30.2311" gradientUnits="userSpaceOnUse">
<stop stop-color="#4998FF"/>
<stop offset="1" stop-color="#AEBEFF"/>
</linearGradient>
<linearGradient id="paint1_linear_13_2" x1="10.9346" y1="14.1909" x2="10.9346" y2="23.3165" gradientUnits="userSpaceOnUse">
<stop stop-color="#4998FF"/>
<stop offset="1" stop-color="#AEBEFF"/>
</linearGradient>
<linearGradient id="paint2_linear_13_2" x1="21.9965" y1="8.1575" x2="21.9739" y2="15.0809" gradientUnits="userSpaceOnUse">
<stop stop-color="#4998FF"/>
<stop offset="1" stop-color="#AEBEFF"/>
</linearGradient>
<clipPath id="clip0_13_2">
<rect width="9.3577" height="9.3577" fill="white" transform="translate(6.26632 13.201)"/>
</clipPath>
<clipPath id="clip1_13_2">
<rect width="7.06233" height="7.06233" fill="white" transform="translate(25.5271 7.60314) rotate(89.953)"/>
</clipPath>
</defs>
</svg>

